<svg width="122" height="38" viewBox="0 0 122 38" fill="none" xmlns="http://www.w3.org/2000/svg">
<g clip-path="url(#clip0_11354_36660)">
<g clip-path="url(#clip1_11354_36660)">
<g clip-path="url(#clip2_11354_36660)">
<g filter="url(#filter0_diii_11354_36660)">
<rect x="-0.0543213" y="1.11035" width="35.7792" height="35.7792" rx="9.39205" fill="url(#paint0_linear_11354_36660)"/>
</g>
<g opacity="0.2" filter="url(#filter1_f_11354_36660)">
<rect x="0.144933" y="1.30961" width="35.3807" height="35.3807" rx="9.1928" stroke="white" stroke-width="0.398508"/>
</g>
<path d="M21.6768 18.9966L27.3842 13.2904C27.7302 12.9444 27.7302 12.3846 27.3842 12.0387L26.39 11.0447C26.0425 10.6973 25.478 10.6973 25.1305 11.0447L21.0156 15.1587L21.0156 8.70577C21.0156 8.21621 20.6175 7.81934 20.1263 7.81934H18.723C18.2319 7.81934 17.8337 8.21621 17.8337 8.70577L17.8337 15.1575L21.6751 18.9981L17.8352 22.8372L23.5404 28.5412C23.8879 28.8886 24.4524 28.8886 24.7999 28.5412L25.7941 27.5472C26.1401 27.2013 26.1401 26.6415 25.7941 26.2955L21.6754 22.1778L28.1271 22.1778C28.6182 22.1778 29.0164 21.7809 29.0164 21.2913V19.883C29.0164 19.3934 28.6182 18.9966 28.1271 18.9966L21.6768 18.9966Z" fill="url(#paint1_linear_11354_36660)"/>
<path d="M17.8356 15.1614L12.1304 9.4574C11.7829 9.10996 11.2183 9.10996 10.8708 9.4574L9.87666 10.4513C9.53063 10.7973 9.53063 11.3571 9.87666 11.703L13.9953 15.8208L7.54367 15.8208C7.05252 15.8208 6.65436 16.2177 6.65436 16.7072V18.1156C6.65436 18.6051 7.05252 19.002 7.54367 19.002L13.9941 19.002L17.8356 15.1614Z" fill="url(#paint2_linear_11354_36660)"/>
<path d="M13.9936 19.0026L8.28457 24.7103C7.93854 25.0563 7.93854 25.6161 8.28457 25.962L9.27872 26.956C9.62624 27.3034 10.1908 27.3034 10.5383 26.956L14.6531 22.842V29.2949C14.6531 29.7845 15.0513 30.1814 15.5425 30.1814H16.9457C17.4369 30.1814 17.835 29.7845 17.835 29.2949V22.8432L13.9936 19.0026Z" fill="url(#paint3_linear_11354_36660)"/>
</g>
</g>
<path d="M43.7027 7.98201H47.7343L54.744 25.0976H55.002L62.0116 7.98201H66.0432V30H62.8825V14.0671H62.6782L56.1846 29.9677H53.5614L47.0678 14.0563H46.8635V30H43.7027V7.98201ZM77.1267 30.3333C75.4998 30.3333 74.0986 29.9857 72.9231 29.2904C71.7548 28.588 70.8518 27.6025 70.2139 26.3339C69.5831 25.0581 69.2678 23.5638 69.2678 21.8508C69.2678 20.1593 69.5831 18.6685 70.2139 17.3784C70.8518 16.0882 71.7405 15.0812 72.8801 14.3573C74.0269 13.6334 75.3672 13.2715 76.901 13.2715C77.8327 13.2715 78.7358 13.4256 79.6102 13.7338C80.4846 14.042 81.2695 14.5258 81.9647 15.1852C82.6599 15.8446 83.2082 16.701 83.6096 17.7546C84.011 18.8011 84.2116 20.0733 84.2116 21.5712V22.7108H71.0847V20.3026H81.0616C81.0616 19.4569 80.8896 18.7079 80.5456 18.0557C80.2015 17.3963 79.7177 16.8766 79.0942 16.4968C78.4778 16.1169 77.7539 15.927 76.9225 15.927C76.0194 15.927 75.231 16.1492 74.5573 16.5935C73.8907 17.0307 73.3747 17.6041 73.0091 18.3137C72.6508 19.0161 72.4716 19.7794 72.4716 20.6036V22.4851C72.4716 23.5888 72.6651 24.5278 73.0521 25.3018C73.4463 26.0759 73.9946 26.6672 74.697 27.0757C75.3994 27.4771 76.2201 27.6778 77.159 27.6778C77.7682 27.6778 78.3237 27.5918 78.8254 27.4198C79.3271 27.2406 79.7607 26.9754 80.1263 26.6242C80.4918 26.273 80.7713 25.8394 80.9648 25.3233L84.0074 25.8716C83.7637 26.7675 83.3265 27.5524 82.6958 28.2261C82.0722 28.8926 81.2874 29.4123 80.3413 29.785C79.4024 30.1505 78.3309 30.3333 77.1267 30.3333ZM94.0964 36.5366C92.7848 36.5366 91.6559 36.3646 90.7098 36.0205C89.7709 35.6765 89.004 35.2214 88.4091 34.6552C87.8143 34.089 87.3699 33.469 87.076 32.7953L89.839 31.6556C90.0325 31.971 90.2906 32.3043 90.6131 32.6555C90.9428 33.0139 91.3872 33.3185 91.9462 33.5693C92.5124 33.8202 93.2399 33.9456 94.1287 33.9456C95.3471 33.9456 96.3541 33.6482 97.1497 33.0533C97.9453 32.4656 98.343 31.5266 98.343 30.2365V26.9897H98.1388C97.9453 27.3409 97.6657 27.7315 97.3002 28.1616C96.9418 28.5916 96.4473 28.9643 95.8166 29.2797C95.1858 29.595 94.3652 29.7527 93.3546 29.7527C92.0501 29.7527 90.8747 29.4481 89.8283 28.8389C88.789 28.2225 87.9648 27.3158 87.3555 26.1189C86.7535 24.9148 86.4525 23.4347 86.4525 21.6787C86.4525 19.9228 86.7499 18.4176 87.3448 17.1633C87.9468 15.9091 88.7711 14.9486 89.8175 14.2821C90.8639 13.6083 92.0501 13.2715 93.3761 13.2715C94.401 13.2715 95.2288 13.4435 95.8596 13.7875C96.4903 14.1244 96.9813 14.5186 97.3324 14.9701C97.6908 15.4217 97.9668 15.8195 98.1603 16.1635H98.3968V13.4865H101.547V30.3655C101.547 31.7847 101.217 32.9494 100.558 33.8596C99.8983 34.7698 99.006 35.4436 97.8807 35.8808C96.7626 36.318 95.5012 36.5366 94.0964 36.5366ZM94.0642 27.0865C94.9887 27.0865 95.77 26.8715 96.4079 26.4414C97.0529 26.0042 97.5403 25.3807 97.87 24.5708C98.2069 23.7537 98.3753 22.7753 98.3753 21.6357C98.3753 20.5248 98.2104 19.5465 97.8807 18.7007C97.5511 17.855 97.0673 17.1956 96.4294 16.7225C95.7915 16.2423 95.0031 16.0022 94.0642 16.0022C93.0966 16.0022 92.2902 16.2531 91.6452 16.7548C91.0001 17.2493 90.5127 17.9231 90.1831 18.776C89.8605 19.6289 89.6993 20.5821 89.6993 21.6357C89.6993 22.718 89.8641 23.6677 90.1938 24.4848C90.5235 25.3018 91.0109 25.9397 91.6559 26.3984C92.3082 26.8571 93.1109 27.0865 94.0642 27.0865ZM110.058 30.3655C109.012 30.3655 108.066 30.172 107.22 29.785C106.374 29.3908 105.704 28.821 105.209 28.0756C104.722 27.3302 104.478 26.4163 104.478 25.3341C104.478 24.4023 104.658 23.6354 105.016 23.0334C105.374 22.4313 105.858 21.9547 106.467 21.6035C107.077 21.2523 107.757 20.9871 108.51 20.8079C109.263 20.6287 110.029 20.4926 110.811 20.3994C111.8 20.2847 112.603 20.1915 113.219 20.1199C113.835 20.041 114.283 19.9156 114.563 19.7436C114.842 19.5716 114.982 19.292 114.982 18.905V18.8297C114.982 17.8908 114.717 17.1633 114.187 16.6473C113.663 16.1312 112.882 15.8732 111.843 15.8732C110.761 15.8732 109.908 16.1133 109.284 16.5935C108.668 17.0666 108.241 17.5934 108.005 18.1739L104.984 17.4859C105.342 16.4824 105.865 15.6725 106.553 15.0561C107.249 14.4326 108.048 13.981 108.951 13.7015C109.854 13.4148 110.804 13.2715 111.8 13.2715C112.459 13.2715 113.158 13.3503 113.896 13.508C114.642 13.6585 115.337 13.938 115.982 14.3466C116.634 14.7551 117.168 15.3393 117.584 16.099C118 16.8516 118.207 17.8299 118.207 19.034V30H115.068V27.7423H114.939C114.731 28.158 114.419 28.5665 114.004 28.9679C113.588 29.3693 113.054 29.7026 112.402 29.9677C111.75 30.2329 110.968 30.3655 110.058 30.3655ZM110.757 27.7853C111.646 27.7853 112.405 27.6097 113.036 27.2585C113.674 26.9073 114.158 26.4486 114.488 25.8824C114.824 25.309 114.993 24.6962 114.993 24.044V21.9153C114.878 22.0299 114.656 22.1375 114.326 22.2378C114.004 22.331 113.635 22.4134 113.219 22.4851C112.803 22.5496 112.398 22.6105 112.004 22.6678C111.61 22.718 111.28 22.761 111.015 22.7968C110.391 22.8757 109.822 23.0083 109.306 23.1946C108.797 23.381 108.388 23.6498 108.08 24.001C107.779 24.345 107.628 24.8037 107.628 25.3771C107.628 26.1727 107.922 26.7747 108.51 27.1832C109.098 27.5846 109.847 27.7853 110.757 27.7853Z" fill="white"/>
</g>
<defs>
<filter id="filter0_diii_11354_36660" x="-0.781962" y="0.72513" width="37.2345" height="37.2346" filterUnits="userSpaceOnUse" color-interpolation-filters="sRGB">
<feFlood flood-opacity="0" result="BackgroundImageFix"/>
<feColorMatrix in="SourceAlpha" type="matrix" values="0 0 0 0 0 0 0 0 0 0 0 0 0 0 0 0 0 0 127 0" result="hardAlpha"/>
<feOffset dy="0.342419"/>
<feGaussianBlur stdDeviation="0.36382"/>
<feColorMatrix type="matrix" values="0 0 0 0 0 0 0 0 0 0 0 0 0 0 0 0 0 0 0.09 0"/>
<feBlend mode="normal" in2="BackgroundImageFix" result="effect1_dropShadow_11354_36660"/>
<feBlend mode="normal" in="SourceGraphic" in2="effect1_dropShadow_11354_36660" result="shape"/>
<feColorMatrix in="SourceAlpha" type="matrix" values="0 0 0 0 0 0 0 0 0 0 0 0 0 0 0 0 0 0 127 0" result="hardAlpha"/>
<feOffset dy="0.807245"/>
<feGaussianBlur stdDeviation="1.21087"/>
<feComposite in2="hardAlpha" operator="arithmetic" k2="-1" k3="1"/>
<feColorMatrix type="matrix" values="0 0 0 0 1 0 0 0 0 1 0 0 0 0 1 0 0 0 0.17 0"/>
<feBlend mode="normal" in2="shape" result="effect2_innerShadow_11354_36660"/>
<feColorMatrix in="SourceAlpha" type="matrix" values="0 0 0 0 0 0 0 0 0 0 0 0 0 0 0 0 0 0 127 0" result="hardAlpha"/>
<feOffset dx="0.100906" dy="0.100906"/>
<feGaussianBlur stdDeviation="0.0504528"/>
<feComposite in2="hardAlpha" operator="arithmetic" k2="-1" k3="1"/>
<feColorMatrix type="matrix" values="0 0 0 0 0.729412 0 0 0 0 0.811765 0 0 0 0 0.917647 0 0 0 0.6 0"/>
<feBlend mode="normal" in2="effect2_innerShadow_11354_36660" result="effect3_innerShadow_11354_36660"/>
<feColorMatrix in="SourceAlpha" type="matrix" values="0 0 0 0 0 0 0 0 0 0 0 0 0 0 0 0 0 0 127 0" result="hardAlpha"/>
<feOffset dx="-0.100906" dy="-0.100906"/>
<feGaussianBlur stdDeviation="0.233533"/>
<feComposite in2="hardAlpha" operator="arithmetic" k2="-1" k3="1"/>
<feColorMatrix type="matrix" values="0 0 0 0 0 0 0 0 0 0.0468889 0 0 0 0 0.293055 0 0 0 0.25 0"/>
<feBlend mode="normal" in2="effect3_innerShadow_11354_36660" result="effect4_innerShadow_11354_36660"/>
</filter>
<filter id="filter1_f_11354_36660" x="-0.452829" y="0.711844" width="36.5763" height="36.5763" filterUnits="userSpaceOnUse" color-interpolation-filters="sRGB">
<feFlood flood-opacity="0" result="BackgroundImageFix"/>
<feBlend mode="normal" in="SourceGraphic" in2="BackgroundImageFix" result="shape"/>
<feGaussianBlur stdDeviation="0.199254" result="effect1_foregroundBlur_11354_36660"/>
</filter>
<linearGradient id="paint0_linear_11354_36660" x1="17.8353" y1="1.11035" x2="17.8353" y2="36.8896" gradientUnits="userSpaceOnUse">
<stop stop-color="#2A85FF"/>
<stop offset="1" stop-color="#0956EC"/>
</linearGradient>
<linearGradient id="paint1_linear_11354_36660" x1="17.8354" y1="7.81934" x2="17.8354" y2="30.1814" gradientUnits="userSpaceOnUse">
<stop stop-color="#F4F8FF"/>
<stop offset="1" stop-color="#EAF4FF"/>
</linearGradient>
<linearGradient id="paint2_linear_11354_36660" x1="17.8354" y1="7.81934" x2="17.8354" y2="30.1814" gradientUnits="userSpaceOnUse">
<stop stop-color="#F4F8FF"/>
<stop offset="1" stop-color="#EAF4FF"/>
</linearGradient>
<linearGradient id="paint3_linear_11354_36660" x1="17.8354" y1="7.81934" x2="17.8354" y2="30.1814" gradientUnits="userSpaceOnUse">
<stop stop-color="#F4F8FF"/>
<stop offset="1" stop-color="#EAF4FF"/>
</linearGradient>
<clipPath id="clip0_11354_36660">
<rect width="122" height="38" fill="white"/>
</clipPath>
<clipPath id="clip1_11354_36660">
<rect width="35.7792" height="35.7792" fill="white" transform="translate(0 1.11035)"/>
</clipPath>
<clipPath id="clip2_11354_36660">
<rect x="-0.0543213" y="1.11035" width="35.7792" height="35.7791" rx="9.39205" fill="white"/>
</clipPath>
</defs>
</svg>
